<svg width="564" height="264" viewBox="0 0 564 264" fill="none" xmlns="http://www.w3.org/2000/svg">
<g id="Group 1">
<g id="DBI_icon_settings">
<path id="Vector" d="M129.251 22.0039L128.851 18.8039C128.634 18.7206 128.43 18.6206 128.238 18.5039C128.047 18.3872 127.859 18.2622 127.676 18.1289L124.701 19.3789L121.951 14.6289L124.526 12.6789C124.509 12.5622 124.501 12.4497 124.501 12.3414V11.6664C124.501 11.5581 124.509 11.4456 124.526 11.3289L121.951 9.37891L124.701 4.62891L127.676 5.87891C127.859 5.74557 128.051 5.62057 128.251 5.50391C128.451 5.38724 128.651 5.28724 128.851 5.20391L129.251 2.00391H134.751L135.151 5.20391C135.368 5.28724 135.572 5.38724 135.763 5.50391C135.955 5.62057 136.143 5.74557 136.326 5.87891L139.301 4.62891L142.051 9.37891L139.476 11.3289C139.493 11.4456 139.501 11.5581 139.501 11.6664V12.3414C139.501 12.4497 139.484 12.5622 139.451 12.6789L142.026 14.6289L139.276 19.3789L136.326 18.1289C136.143 18.2622 135.951 18.3872 135.751 18.5039C135.551 18.6206 135.351 18.7206 135.151 18.8039L134.751 22.0039H129.251ZM131.001 20.0039H132.976L133.326 17.3539C133.843 17.2206 134.322 17.0247 134.763 16.7664C135.205 16.5081 135.609 16.1956 135.976 15.8289L138.451 16.8539L139.426 15.1539L137.276 13.5289C137.359 13.2956 137.418 13.0497 137.451 12.7914C137.484 12.5331 137.501 12.2706 137.501 12.0039C137.501 11.7372 137.484 11.4747 137.451 11.2164C137.418 10.9581 137.359 10.7122 137.276 10.4789L139.426 8.85391L138.451 7.15391L135.976 8.20391C135.609 7.82057 135.205 7.49974 134.763 7.24141C134.322 6.98307 133.843 6.78724 133.326 6.65391L133.001 4.00391H131.026L130.676 6.65391C130.159 6.78724 129.68 6.98307 129.238 7.24141C128.797 7.49974 128.393 7.81224 128.026 8.17891L125.551 7.15391L124.576 8.85391L126.726 10.4539C126.643 10.7039 126.584 10.9539 126.551 11.2039C126.518 11.4539 126.501 11.7206 126.501 12.0039C126.501 12.2706 126.518 12.5289 126.551 12.7789C126.584 13.0289 126.643 13.2789 126.726 13.5289L124.576 15.1539L125.551 16.8539L128.026 15.8039C128.393 16.1872 128.797 16.5081 129.238 16.7664C129.68 17.0247 130.159 17.2206 130.676 17.3539L131.001 20.0039ZM132.051 15.5039C133.018 15.5039 133.843 15.1622 134.526 14.4789C135.209 13.7956 135.551 12.9706 135.551 12.0039C135.551 11.0372 135.209 10.2122 134.526 9.52891C133.843 8.84557 133.018 8.50391 132.051 8.50391C131.068 8.50391 130.238 8.84557 129.563 9.52891C128.888 10.2122 128.551 11.0372 128.551 12.0039C128.551 12.9706 128.888 13.7956 129.563 14.4789C130.238 15.1622 131.068 15.5039 132.051 15.5039Z" fill="#252323"/>
</g>
<g id="DBI_icon_add_schedule">
<path id="Vector_2" d="M197 22V19H194V17H197V14H199V17H202V19H199V22H197ZM185 20C184.45 20 183.979 19.8042 183.588 19.4125C183.196 19.0208 183 18.55 183 18V6C183 5.45 183.196 4.97917 183.588 4.5875C183.979 4.19583 184.45 4 185 4H186V2H188V4H194V2H196V4H197C197.55 4 198.021 4.19583 198.413 4.5875C198.804 4.97917 199 5.45 199 6V12.1C198.667 12.05 198.333 12.025 198 12.025C197.667 12.025 197.333 12.05 197 12.1V10H185V18H192C192 18.3333 192.025 18.6667 192.075 19C192.125 19.3333 192.217 19.6667 192.35 20H185ZM185 8H197V6H185V8Z" fill="#252323"/>
</g>
<g id="DBI_icon_users">
<path id="Vector_3" d="M241 20V17.2C241 16.6333 241.146 16.1125 241.438 15.6375C241.729 15.1625 242.117 14.8 242.6 14.55C243.633 14.0333 244.683 13.6458 245.75 13.3875C246.817 13.1292 247.9 13 249 13C250.1 13 251.183 13.1292 252.25 13.3875C253.317 13.6458 254.367 14.0333 255.4 14.55C255.883 14.8 256.271 15.1625 256.562 15.6375C256.854 16.1125 257 16.6333 257 17.2V20H241ZM259 20V17C259 16.2667 258.796 15.5625 258.388 14.8875C257.979 14.2125 257.4 13.6333 256.65 13.15C257.5 13.25 258.3 13.4208 259.05 13.6625C259.8 13.9042 260.5 14.2 261.15 14.55C261.75 14.8833 262.208 15.2542 262.525 15.6625C262.842 16.0708 263 16.5167 263 17V20H259ZM249 12C247.9 12 246.958 11.6083 246.175 10.825C245.392 10.0417 245 9.1 245 8C245 6.9 245.392 5.95833 246.175 5.175C246.958 4.39167 247.9 4 249 4C250.1 4 251.042 4.39167 251.825 5.175C252.608 5.95833 253 6.9 253 8C253 9.1 252.608 10.0417 251.825 10.825C251.042 11.6083 250.1 12 249 12ZM259 8C259 9.1 258.608 10.0417 257.825 10.825C257.042 11.6083 256.1 12 255 12C254.817 12 254.583 11.9792 254.3 11.9375C254.017 11.8958 253.783 11.85 253.6 11.8C254.05 11.2667 254.396 10.675 254.637 10.025C254.879 9.375 255 8.7 255 8C255 7.3 254.879 6.625 254.637 5.975C254.396 5.325 254.05 4.73333 253.6 4.2C253.833 4.11667 254.067 4.0625 254.3 4.0375C254.533 4.0125 254.767 4 255 4C256.1 4 257.042 4.39167 257.825 5.175C258.608 5.95833 259 6.9 259 8ZM243 18H255V17.2C255 17.0167 254.954 16.85 254.863 16.7C254.771 16.55 254.65 16.4333 254.5 16.35C253.6 15.9 252.692 15.5625 251.775 15.3375C250.858 15.1125 249.933 15 249 15C248.067 15 247.142 15.1125 246.225 15.3375C245.308 15.5625 244.4 15.9 243.5 16.35C243.35 16.4333 243.229 16.55 243.138 16.7C243.046 16.85 243 17.0167 243 17.2V18ZM249 10C249.55 10 250.021 9.80417 250.413 9.4125C250.804 9.02083 251 8.55 251 8C251 7.45 250.804 6.97917 250.413 6.5875C250.021 6.19583 249.55 6 249 6C248.45 6 247.979 6.19583 247.588 6.5875C247.196 6.97917 247 7.45 247 8C247 8.55 247.196 9.02083 247.588 9.4125C247.979 9.80417 248.45 10 249 10Z" fill="#252323"/>
</g>
<g id="DBI_icon_qr_code">
<path id="Vector_4" d="M313 21V19H315V21H313ZM311 19V14H313V19H311ZM319 16V12H321V16H319ZM317 12V10H319V12H317ZM305 14V12H307V14H305ZM303 12V10H305V12H303ZM312 5V3H314V5H312ZM304.5 7.5H307.5V4.5H304.5V7.5ZM303 9V3H309V9H303ZM304.5 19.5H307.5V16.5H304.5V19.5ZM303 21V15H309V21H303ZM316.5 7.5H319.5V4.5H316.5V7.5ZM315 9V3H321V9H315ZM317 21V18H315V16H319V19H321V21H317ZM313 14V12H317V14H313ZM309 14V12H307V10H313V12H311V14H309ZM310 9V5H312V7H314V9H310ZM305.25 6.75V5.25H306.75V6.75H305.25ZM305.25 18.75V17.25H306.75V18.75H305.25ZM317.25 6.75V5.25H318.75V6.75H317.25Z" fill="#252323"/>
</g>
<g id="DBI_icon_groups" clip-path="url(#clip0_1118_5616)">
<path id="Vector_5" d="M360 18.0011V16.4261C360 15.7095 360.366 15.1261 361.1 14.6761C361.833 14.2261 362.8 14.0011 364 14.0011C364.216 14.0011 364.425 14.0053 364.625 14.0136C364.825 14.022 365.016 14.0428 365.2 14.0761C364.966 14.4261 364.791 14.7928 364.675 15.1761C364.558 15.5595 364.5 15.9595 364.5 16.3761V18.0011H360ZM366 18.0011V16.3761C366 15.8428 366.146 15.3553 366.437 14.9136C366.729 14.472 367.141 14.0845 367.675 13.7511C368.208 13.4178 368.846 13.1678 369.587 13.0011C370.329 12.8345 371.133 12.7511 372 12.7511C372.883 12.7511 373.696 12.8345 374.437 13.0011C375.179 13.1678 375.816 13.4178 376.35 13.7511C376.883 14.0845 377.291 14.472 377.575 14.9136C377.858 15.3553 378 15.8428 378 16.3761V18.0011H366ZM379.5 18.0011V16.3761C379.5 15.9428 379.446 15.5345 379.337 15.1511C379.229 14.7678 379.066 14.4095 378.85 14.0761C379.033 14.0428 379.221 14.022 379.412 14.0136C379.604 14.0053 379.8 14.0011 380 14.0011C381.2 14.0011 382.166 14.222 382.9 14.6636C383.633 15.1053 384 15.6928 384 16.4261V18.0011H379.5ZM368.125 16.0011H375.9C375.733 15.6678 375.271 15.3761 374.512 15.1261C373.754 14.8761 372.916 14.7511 372 14.7511C371.083 14.7511 370.246 14.8761 369.487 15.1261C368.729 15.3761 368.275 15.6678 368.125 16.0011ZM364 13.0011C363.45 13.0011 362.979 12.8053 362.587 12.4136C362.196 12.022 362 11.5511 362 11.0011C362 10.4345 362.196 9.95948 362.587 9.57614C362.979 9.19281 363.45 9.00114 364 9.00114C364.566 9.00114 365.041 9.19281 365.425 9.57614C365.808 9.95948 366 10.4345 366 11.0011C366 11.5511 365.808 12.022 365.425 12.4136C365.041 12.8053 364.566 13.0011 364 13.0011ZM380 13.0011C379.45 13.0011 378.979 12.8053 378.587 12.4136C378.196 12.022 378 11.5511 378 11.0011C378 10.4345 378.196 9.95948 378.587 9.57614C378.979 9.19281 379.45 9.00114 380 9.00114C380.566 9.00114 381.041 9.19281 381.425 9.57614C381.808 9.95948 382 10.4345 382 11.0011C382 11.5511 381.808 12.022 381.425 12.4136C381.041 12.8053 380.566 13.0011 380 13.0011ZM372 12.0011C371.166 12.0011 370.458 11.7095 369.875 11.1261C369.291 10.5428 369 9.83448 369 9.00114C369 8.15114 369.291 7.43864 369.875 6.86364C370.458 6.28864 371.166 6.00114 372 6.00114C372.85 6.00114 373.562 6.28864 374.137 6.86364C374.712 7.43864 375 8.15114 375 9.00114C375 9.83448 374.712 10.5428 374.137 11.1261C373.562 11.7095 372.85 12.0011 372 12.0011ZM372 10.0011C372.283 10.0011 372.521 9.90531 372.712 9.71364C372.904 9.52198 373 9.28448 373 9.00114C373 8.71781 372.904 8.48031 372.712 8.28864C372.521 8.09698 372.283 8.00114 372 8.00114C371.716 8.00114 371.479 8.09698 371.287 8.28864C371.096 8.48031 371 8.71781 371 9.00114C371 9.28448 371.096 9.52198 371.287 9.71364C371.479 9.90531 371.716 10.0011 372 10.0011Z" fill="#252323"/>
</g>
<g id="DBI_icon_qr_code_group">
<path id="Vector_6" d="M425 14V12H427V14H425ZM423 12V10H425V12H423ZM432 5V3H434V5H432ZM424.5 7.5H427.5V4.5H424.5V7.5ZM423 9V3H429V9H423ZM424.5 19.5H427.5V16.5H424.5V19.5ZM423 21V15H429V21H423ZM436.5 7.5H439.5V4.5H436.5V7.5ZM435 9V3H441V9H435ZM429 14V12H427V10H431V14H429ZM430 9V5H432V7H434V9H430ZM425.25 6.75V5.25H426.75V6.75H425.25ZM425.25 18.75V17.25H426.75V18.75H425.25ZM437.25 6.75V5.25H438.75V6.75H437.25ZM436 21V18H433V16H436V13H438V16H441V18H438V21H436Z" fill="#252323"/>
</g>
<g id="DBI_icon_summarize">
<path id="Vector_7" d="M488 9C488.283 9 488.521 8.90417 488.713 8.7125C488.904 8.52083 489 8.28333 489 8C489 7.71667 488.904 7.47917 488.713 7.2875C488.521 7.09583 488.283 7 488 7C487.717 7 487.479 7.09583 487.287 7.2875C487.096 7.47917 487 7.71667 487 8C487 8.28333 487.096 8.52083 487.287 8.7125C487.479 8.90417 487.717 9 488 9ZM488 13C488.283 13 488.521 12.9042 488.713 12.7125C488.904 12.5208 489 12.2833 489 12C489 11.7167 488.904 11.4792 488.713 11.2875C488.521 11.0958 488.283 11 488 11C487.717 11 487.479 11.0958 487.287 11.2875C487.096 11.4792 487 11.7167 487 12C487 12.2833 487.096 12.5208 487.287 12.7125C487.479 12.9042 487.717 13 488 13ZM488 17C488.283 17 488.521 16.9042 488.713 16.7125C488.904 16.5208 489 16.2833 489 16C489 15.7167 488.904 15.4792 488.713 15.2875C488.521 15.0958 488.283 15 488 15C487.717 15 487.479 15.0958 487.287 15.2875C487.096 15.4792 487 15.7167 487 16C487 16.2833 487.096 16.5208 487.287 16.7125C487.479 16.9042 487.717 17 488 17ZM485 21C484.45 21 483.979 20.8042 483.588 20.4125C483.196 20.0208 483 19.55 483 19V5C483 4.45 483.196 3.97917 483.588 3.5875C483.979 3.19583 484.45 3 485 3H496L501 8V19C501 19.55 500.804 20.0208 500.413 20.4125C500.021 20.8042 499.55 21 499 21H485ZM485 19H499V9H495V5H485V19Z" fill="#252323"/>
</g>
<g id="DBI_icon_move_file">
<path id="Vector_8" d="M552.2 14L550.575 15.625L551.975 17.025L556 13L551.975 8.975L550.575 10.375L552.2 12H548V14H552.2ZM544 20C543.45 20 542.979 19.8042 542.588 19.4125C542.196 19.0208 542 18.55 542 18V6C542 5.45 542.196 4.97917 542.588 4.5875C542.979 4.19583 543.45 4 544 4H550L552 6H560C560.55 6 561.021 6.19583 561.413 6.5875C561.804 6.97917 562 7.45 562 8V18C562 18.55 561.804 19.0208 561.413 19.4125C561.021 19.8042 560.55 20 560 20H544ZM544 18H560V8H551.175L549.175 6H544V18Z" fill="#252323"/>
</g>
<g id="DBI_icon_more_horizon">
<path id="Vector_9" d="M6 14C5.45 14 4.97917 13.8042 4.5875 13.4125C4.19583 13.0208 4 12.55 4 12C4 11.45 4.19583 10.9792 4.5875 10.5875C4.97917 10.1958 5.45 10 6 10C6.55 10 7.02083 10.1958 7.4125 10.5875C7.80417 10.9792 8 11.45 8 12C8 12.55 7.80417 13.0208 7.4125 13.4125C7.02083 13.8042 6.55 14 6 14ZM12 14C11.45 14 10.9792 13.8042 10.5875 13.4125C10.1958 13.0208 10 12.55 10 12C10 11.45 10.1958 10.9792 10.5875 10.5875C10.9792 10.1958 11.45 10 12 10C12.55 10 13.0208 10.1958 13.4125 10.5875C13.8042 10.9792 14 11.45 14 12C14 12.55 13.8042 13.0208 13.4125 13.4125C13.0208 13.8042 12.55 14 12 14ZM18 14C17.45 14 16.9792 13.8042 16.5875 13.4125C16.1958 13.0208 16 12.55 16 12C16 11.45 16.1958 10.9792 16.5875 10.5875C16.9792 10.1958 17.45 10 18 10C18.55 10 19.0208 10.1958 19.4125 10.5875C19.8042 10.9792 20 11.45 20 12C20 12.55 19.8042 13.0208 19.4125 13.4125C19.0208 13.8042 18.55 14 18 14Z" fill="#252323"/>
</g>
<g id="DBI_icon_help">
<path id="Vector_10" d="M71.95 18C72.3 18 72.5958 17.8792 72.8375 17.6375C73.0792 17.3958 73.2 17.1 73.2 16.75C73.2 16.4 73.0792 16.1042 72.8375 15.8625C72.5958 15.6208 72.3 15.5 71.95 15.5C71.6 15.5 71.3042 15.6208 71.0625 15.8625C70.8208 16.1042 70.7 16.4 70.7 16.75C70.7 17.1 70.8208 17.3958 71.0625 17.6375C71.3042 17.8792 71.6 18 71.95 18ZM71.05 14.15H72.9C72.9 13.6 72.9625 13.1667 73.0875 12.85C73.2125 12.5333 73.5667 12.1 74.15 11.55C74.5833 11.1167 74.925 10.7042 75.175 10.3125C75.425 9.92083 75.55 9.45 75.55 8.9C75.55 7.96667 75.2083 7.25 74.525 6.75C73.8417 6.25 73.0333 6 72.1 6C71.15 6 70.3792 6.25 69.7875 6.75C69.1958 7.25 68.7833 7.85 68.55 8.55L70.2 9.2C70.2833 8.9 70.4708 8.575 70.7625 8.225C71.0542 7.875 71.5 7.7 72.1 7.7C72.6333 7.7 73.0333 7.84583 73.3 8.1375C73.5667 8.42917 73.7 8.75 73.7 9.1C73.7 9.43333 73.6 9.74583 73.4 10.0375C73.2 10.3292 72.95 10.6 72.65 10.85C71.9167 11.5 71.4667 11.9917 71.3 12.325C71.1333 12.6583 71.05 13.2667 71.05 14.15ZM72 22C70.6167 22 69.3167 21.7375 68.1 21.2125C66.8833 20.6875 65.825 19.975 64.925 19.075C64.025 18.175 63.3125 17.1167 62.7875 15.9C62.2625 14.6833 62 13.3833 62 12C62 10.6167 62.2625 9.31667 62.7875 8.1C63.3125 6.88333 64.025 5.825 64.925 4.925C65.825 4.025 66.8833 3.3125 68.1 2.7875C69.3167 2.2625 70.6167 2 72 2C73.3833 2 74.6833 2.2625 75.9 2.7875C77.1167 3.3125 78.175 4.025 79.075 4.925C79.975 5.825 80.6875 6.88333 81.2125 8.1C81.7375 9.31667 82 10.6167 82 12C82 13.3833 81.7375 14.6833 81.2125 15.9C80.6875 17.1167 79.975 18.175 79.075 19.075C78.175 19.975 77.1167 20.6875 75.9 21.2125C74.6833 21.7375 73.3833 22 72 22ZM72 20C74.2333 20 76.125 19.225 77.675 17.675C79.225 16.125 80 14.2333 80 12C80 9.76667 79.225 7.875 77.675 6.325C76.125 4.775 74.2333 4 72 4C69.7667 4 67.875 4.775 66.325 6.325C64.775 7.875 64 9.76667 64 12C64 14.2333 64.775 16.125 66.325 17.675C67.875 19.225 69.7667 20 72 20Z" fill="#252323"/>
</g>
<g id="DBI_icon_calender">
<path id="Vector_11" d="M4.99982 81.9978C4.44982 81.9978 3.97898 81.8019 3.58732 81.4103C3.19565 81.0186 2.99982 80.5478 2.99982 79.9978V65.9978C2.99982 65.4478 3.19565 64.9769 3.58732 64.5853C3.97898 64.1936 4.44982 63.9978 4.99982 63.9978H5.99982V61.9978H7.99982V63.9978H15.9998V61.9978H17.9998V63.9978H18.9998C19.5498 63.9978 20.0207 64.1936 20.4123 64.5853C20.804 64.9769 20.9998 65.4478 20.9998 65.9978V79.9978C20.9998 80.5478 20.804 81.0186 20.4123 81.4103C20.0207 81.8019 19.5498 81.9978 18.9998 81.9978H4.99982ZM4.99982 79.9978H18.9998V69.9978H4.99982V79.9978ZM4.99982 67.9978H18.9998V65.9978H4.99982V67.9978ZM11.9998 73.9978C11.7165 73.9978 11.479 73.9019 11.2873 73.7103C11.0957 73.5186 10.9998 73.2811 10.9998 72.9978C10.9998 72.7144 11.0957 72.4769 11.2873 72.2853C11.479 72.0936 11.7165 71.9978 11.9998 71.9978C12.2832 71.9978 12.5207 72.0936 12.7123 72.2853C12.904 72.4769 12.9998 72.7144 12.9998 72.9978C12.9998 73.2811 12.904 73.5186 12.7123 73.7103C12.5207 73.9019 12.2832 73.9978 11.9998 73.9978ZM7.99982 73.9978C7.71648 73.9978 7.47898 73.9019 7.28732 73.7103C7.09565 73.5186 6.99982 73.2811 6.99982 72.9978C6.99982 72.7144 7.09565 72.4769 7.28732 72.2853C7.47898 72.0936 7.71648 71.9978 7.99982 71.9978C8.28315 71.9978 8.52065 72.0936 8.71232 72.2853C8.90398 72.4769 8.99982 72.7144 8.99982 72.9978C8.99982 73.2811 8.90398 73.5186 8.71232 73.7103C8.52065 73.9019 8.28315 73.9978 7.99982 73.9978ZM15.9998 73.9978C15.7165 73.9978 15.479 73.9019 15.2873 73.7103C15.0957 73.5186 14.9998 73.2811 14.9998 72.9978C14.9998 72.7144 15.0957 72.4769 15.2873 72.2853C15.479 72.0936 15.7165 71.9978 15.9998 71.9978C16.2832 71.9978 16.5207 72.0936 16.7123 72.2853C16.904 72.4769 16.9998 72.7144 16.9998 72.9978C16.9998 73.2811 16.904 73.5186 16.7123 73.7103C16.5207 73.9019 16.2832 73.9978 15.9998 73.9978ZM11.9998 77.9978C11.7165 77.9978 11.479 77.9019 11.2873 77.7103C11.0957 77.5186 10.9998 77.2811 10.9998 76.9978C10.9998 76.7144 11.0957 76.4769 11.2873 76.2853C11.479 76.0936 11.7165 75.9978 11.9998 75.9978C12.2832 75.9978 12.5207 76.0936 12.7123 76.2853C12.904 76.4769 12.9998 76.7144 12.9998 76.9978C12.9998 77.2811 12.904 77.5186 12.7123 77.7103C12.5207 77.9019 12.2832 77.9978 11.9998 77.9978ZM7.99982 77.9978C7.71648 77.9978 7.47898 77.9019 7.28732 77.7103C7.09565 77.5186 6.99982 77.2811 6.99982 76.9978C6.99982 76.7144 7.09565 76.4769 7.28732 76.2853C7.47898 76.0936 7.71648 75.9978 7.99982 75.9978C8.28315 75.9978 8.52065 76.0936 8.71232 76.2853C8.90398 76.4769 8.99982 76.7144 8.99982 76.9978C8.99982 77.2811 8.90398 77.5186 8.71232 77.7103C8.52065 77.9019 8.28315 77.9978 7.99982 77.9978ZM15.9998 77.9978C15.7165 77.9978 15.479 77.9019 15.2873 77.7103C15.0957 77.5186 14.9998 77.2811 14.9998 76.9978C14.9998 76.7144 15.0957 76.4769 15.2873 76.2853C15.479 76.0936 15.7165 75.9978 15.9998 75.9978C16.2832 75.9978 16.5207 76.0936 16.7123 76.2853C16.904 76.4769 16.9998 76.7144 16.9998 76.9978C16.9998 77.2811 16.904 77.5186 16.7123 77.7103C16.5207 77.9019 16.2832 77.9978 15.9998 77.9978Z" fill="#252323"/>
</g>
<g id="DBI_icon_dashboard">
<path id="Vector_12" d="M133 69.0026V63.0026H141V69.0026H133ZM123 73.0026V63.0026H131V73.0026H123ZM133 81.0026V71.0026H141V81.0026H133ZM123 81.0026V75.0026H131V81.0026H123ZM125 71.0026H129V65.0026H125V71.0026ZM135 79.0026H139V73.0026H135V79.0026ZM135 67.0026H139V65.0026H135V67.0026ZM125 79.0026H129V77.0026H125V79.0026Z" fill="#252323"/>
</g>
<g id="DBI_icon_dashboard_2">
<path id="Vector_13" d="M64 79V77H66V70C66 68.6167 66.4167 67.3875 67.25 66.3125C68.0833 65.2375 69.1667 64.5333 70.5 64.2V63.5C70.5 63.0833 70.6458 62.7292 70.9375 62.4375C71.2292 62.1458 71.5833 62 72 62C72.4167 62 72.7708 62.1458 73.0625 62.4375C73.3542 62.7292 73.5 63.0833 73.5 63.5V64.2C74.8333 64.5333 75.9167 65.2375 76.75 66.3125C77.5833 67.3875 78 68.6167 78 70V77H80V79H64ZM72 82C71.45 82 70.9792 81.8042 70.5875 81.4125C70.1958 81.0208 70 80.55 70 80H74C74 80.55 73.8042 81.0208 73.4125 81.4125C73.0208 81.8042 72.55 82 72 82ZM68 77H76V70C76 68.9 75.6083 67.9583 74.825 67.175C74.0417 66.3917 73.1 66 72 66C70.9 66 69.9583 66.3917 69.175 67.175C68.3917 67.9583 68 68.9 68 70V77Z" fill="#252323"/>
</g>
<g id="DBI_icon_edit_schedule">
<path id="Vector_14" d="M185 80.997C184.45 80.997 183.979 80.8012 183.588 80.4095C183.196 80.0179 183 79.547 183 78.997V64.997C183 64.447 183.196 63.9762 183.588 63.5845C183.979 63.1929 184.45 62.997 185 62.997H193.925L191.925 64.997H185V78.997H199V72.047L201 70.047V78.997C201 79.547 200.804 80.0179 200.413 80.4095C200.021 80.8012 199.55 80.997 199 80.997H185ZM189 74.997V70.747L198.175 61.572C198.375 61.372 198.6 61.222 198.85 61.122C199.1 61.022 199.35 60.972 199.6 60.972C199.867 60.972 200.121 61.022 200.363 61.122C200.604 61.222 200.825 61.372 201.025 61.572L202.425 62.997C202.608 63.197 202.75 63.4179 202.85 63.6595C202.95 63.9012 203 64.147 203 64.397C203 64.647 202.954 64.8929 202.863 65.1345C202.771 65.3762 202.625 65.597 202.425 65.797L193.25 74.997H189ZM191 72.997H192.4L198.2 67.197L197.5 66.497L196.775 65.797L191 71.572V72.997Z" fill="#252323"/>
</g>
<g id="DBI_icon_add_folder">
<path id="Vector_15" d="M254 76H256V74H258V72H256V70H254V72H252V74H254V76ZM244 80C243.45 80 242.979 79.8042 242.588 79.4125C242.196 79.0208 242 78.55 242 78V66C242 65.45 242.196 64.9792 242.588 64.5875C242.979 64.1958 243.45 64 244 64H250L252 66H260C260.55 66 261.021 66.1958 261.413 66.5875C261.804 66.9792 262 67.45 262 68V78C262 78.55 261.804 79.0208 261.413 79.4125C261.021 79.8042 260.55 80 260 80H244ZM244 78H260V68H251.175L249.175 66H244V78Z" fill="#252323"/>
</g>
<g id="DBI_icon_back" clip-path="url(#clip1_1118_5616)">
<path id="Vector_16" d="M310 82L300 72L310 62L311.775 63.775L303.55 72L311.775 80.225L310 82Z" fill="#252323"/>
</g>
<g id="DBI_icon_arrow_down">
<g id="fi:chevron-down">
<path id="Vector_17" d="M366 69L372 75L378 69" stroke="#252323" stroke-width="2" stroke-linecap="round" stroke-linejoin="round"/>
</g>
</g>
<g id="DBI_icon_arrow_right">
<g id="DBI_icon_arrow_down_2">
<g id="fi:chevron-down_2">
<path id="Vector_18" d="M429 78L435 72L429 66" stroke="#252323" stroke-width="2" stroke-linecap="round" stroke-linejoin="round"/>
</g>
</g>
</g>
<g id="DBI_icon_edit_calendar">
<path id="Vector_19" d="M485 82C484.45 82 483.979 81.8042 483.588 81.4125C483.196 81.0208 483 80.55 483 80V66C483 65.45 483.196 64.9792 483.588 64.5875C483.979 64.1958 484.45 64 485 64H486V62H488V64H496V62H498V64H499C499.55 64 500.021 64.1958 500.413 64.5875C500.804 64.9792 501 65.45 501 66V71H499V70H485V80H492V82H485ZM485 68H499V66H485V68ZM494 82V78.925L499.525 73.425C499.675 73.275 499.842 73.1667 500.025 73.1C500.208 73.0333 500.392 73 500.575 73C500.775 73 500.967 73.0375 501.15 73.1125C501.333 73.1875 501.5 73.3 501.65 73.45L502.575 74.375C502.708 74.525 502.812 74.6917 502.888 74.875C502.962 75.0583 503 75.2417 503 75.425C503 75.6083 502.967 75.7958 502.9 75.9875C502.833 76.1792 502.725 76.35 502.575 76.5L497.075 82H494ZM495.5 80.5H496.45L499.475 77.45L499.025 76.975L498.55 76.525L495.5 79.55V80.5ZM499.025 76.975L498.55 76.525L499.475 77.45L499.025 76.975Z" fill="#252323"/>
</g>
<g id="DBI_icon_sort">
<path id="Vector_20" d="M543 78V76H549V78H543ZM543 73V71H555V73H543ZM543 68V66H561V68H543Z" fill="#252323"/>
</g>
<g id="DBI_icon_warning">
<path id="Vector_21" d="M1.00055 140.998L12.0005 121.998L23.0005 140.998H1.00055ZM4.45055 138.998H19.5505L12.0005 125.998L4.45055 138.998ZM12.0005 137.998C12.2839 137.998 12.5214 137.902 12.713 137.71C12.9047 137.519 13.0005 137.281 13.0005 136.998C13.0005 136.714 12.9047 136.477 12.713 136.285C12.5214 136.094 12.2839 135.998 12.0005 135.998C11.7172 135.998 11.4797 136.094 11.288 136.285C11.0964 136.477 11.0005 136.714 11.0005 136.998C11.0005 137.281 11.0964 137.519 11.288 137.71C11.4797 137.902 11.7172 137.998 12.0005 137.998ZM11.0005 134.998H13.0005V129.998H11.0005V134.998Z" fill="#252323"/>
</g>
<g id="DBI_icon_user">
<path id="Vector_22" d="M72.0004 131.994C70.9004 131.994 69.9587 131.602 69.1754 130.819C68.392 130.035 68.0004 129.094 68.0004 127.994C68.0004 126.894 68.392 125.952 69.1754 125.169C69.9587 124.385 70.9004 123.994 72.0004 123.994C73.1004 123.994 74.042 124.385 74.8254 125.169C75.6087 125.952 76.0004 126.894 76.0004 127.994C76.0004 129.094 75.6087 130.035 74.8254 130.819C74.042 131.602 73.1004 131.994 72.0004 131.994ZM64.0004 139.994V137.194C64.0004 136.627 64.1462 136.106 64.4379 135.631C64.7295 135.156 65.117 134.794 65.6004 134.544C66.6337 134.027 67.6837 133.639 68.7504 133.381C69.817 133.123 70.9004 132.994 72.0004 132.994C73.1004 132.994 74.1837 133.123 75.2504 133.381C76.317 133.639 77.367 134.027 78.4004 134.544C78.8837 134.794 79.2712 135.156 79.5629 135.631C79.8545 136.106 80.0004 136.627 80.0004 137.194V139.994H64.0004ZM66.0004 137.994H78.0004V137.194C78.0004 137.01 77.9545 136.844 77.8629 136.694C77.7712 136.544 77.6504 136.427 77.5004 136.344C76.6004 135.894 75.692 135.556 74.7754 135.331C73.8587 135.106 72.9337 134.994 72.0004 134.994C71.067 134.994 70.142 135.106 69.2254 135.331C68.3087 135.556 67.4004 135.894 66.5004 136.344C66.3504 136.427 66.2295 136.544 66.1379 136.694C66.0462 136.844 66.0004 137.01 66.0004 137.194V137.994ZM72.0004 129.994C72.5504 129.994 73.0212 129.798 73.4129 129.406C73.8045 129.015 74.0004 128.544 74.0004 127.994C74.0004 127.444 73.8045 126.973 73.4129 126.581C73.0212 126.19 72.5504 125.994 72.0004 125.994C71.4504 125.994 70.9795 126.19 70.5879 126.581C70.1962 126.973 70.0004 127.444 70.0004 127.994C70.0004 128.544 70.1962 129.015 70.5879 129.406C70.9795 129.798 71.4504 129.994 72.0004 129.994Z" fill="#252323"/>
</g>
<g id="DBI_icon_folder">
<path id="Vector_23" d="M124 139.994C123.45 139.994 122.979 139.798 122.587 139.406C122.195 139.015 122 138.544 122 137.994V125.994C122 125.444 122.195 124.973 122.587 124.581C122.979 124.189 123.45 123.994 124 123.994H130L132 125.994H140C140.55 125.994 141.02 126.19 141.412 126.581C141.804 126.973 142 127.444 142 127.994V137.994C142 138.544 141.804 139.015 141.412 139.406C141.02 139.798 140.55 139.994 140 139.994H124ZM124 137.994H140V127.994H131.175L129.175 125.994H124V137.994Z" fill="#252323"/>
</g>
<g id="DBI_icon_logout">
<path id="Vector_24" d="M185 141.003C184.45 141.003 183.979 140.807 183.588 140.415C183.196 140.023 183 139.553 183 139.003V125.003C183 124.453 183.196 123.982 183.588 123.59C183.979 123.198 184.45 123.003 185 123.003H192V125.003H185V139.003H192V141.003H185ZM196 137.003L194.625 135.553L197.175 133.003H189V131.003H197.175L194.625 128.453L196 127.003L201 132.003L196 137.003Z" fill="#252323"/>
</g>
<g id="DBI_icon_check">
<g id="DBI_icon_check_small">
<path id="Vector_25" d="M250 136.4L246 132.4L247.4 131L250 133.6L256.6 127L258 128.4L250 136.4Z" fill="#252323"/>
</g>
</g>
<g id="DBI_icon_print">
<path id="Vector_26" d="M316 128V125H308V128H306V123H318V128H316ZM318 132.5C318.283 132.5 318.521 132.404 318.712 132.213C318.904 132.021 319 131.783 319 131.5C319 131.217 318.904 130.979 318.712 130.787C318.521 130.596 318.283 130.5 318 130.5C317.717 130.5 317.479 130.596 317.288 130.787C317.096 130.979 317 131.217 317 131.5C317 131.783 317.096 132.021 317.288 132.213C317.479 132.404 317.717 132.5 318 132.5ZM316 139V135H308V139H316ZM318 141H306V137H302V131C302 130.15 302.292 129.438 302.875 128.863C303.458 128.287 304.167 128 305 128H319C319.85 128 320.562 128.287 321.138 128.863C321.712 129.438 322 130.15 322 131V137H318V141ZM320 135V131C320 130.717 319.904 130.479 319.712 130.287C319.521 130.096 319.283 130 319 130H305C304.717 130 304.479 130.096 304.288 130.287C304.096 130.479 304 130.717 304 131V135H306V133H318V135H320Z" fill="#252323"/>
</g>
<g id="DBI_icon_search">
<path id="Vector_27" d="M379.6 141.003L373.3 134.703C372.8 135.103 372.225 135.419 371.575 135.653C370.925 135.886 370.233 136.003 369.5 136.003C367.683 136.003 366.146 135.373 364.887 134.115C363.629 132.857 363 131.319 363 129.503C363 127.686 363.629 126.148 364.887 124.89C366.146 123.632 367.683 123.003 369.5 123.003C371.317 123.003 372.854 123.632 374.112 124.89C375.371 126.148 376 127.686 376 129.503C376 130.236 375.883 130.928 375.65 131.578C375.417 132.228 375.1 132.803 374.7 133.303L381 139.603L379.6 141.003ZM369.5 134.003C370.75 134.003 371.812 133.565 372.687 132.69C373.562 131.815 374 130.753 374 129.503C374 128.253 373.562 127.19 372.687 126.315C371.812 125.44 370.75 125.003 369.5 125.003C368.25 125.003 367.187 125.44 366.312 126.315C365.437 127.19 365 128.253 365 129.503C365 130.753 365.437 131.815 366.312 132.69C367.187 133.565 368.25 134.003 369.5 134.003Z" fill="#252323"/>
</g>
<g id="DBI_icon_copy">
<path id="Vector_28" d="M429 137.998C428.45 137.998 427.979 137.802 427.588 137.41C427.196 137.019 427 136.548 427 135.998V123.998C427 123.448 427.196 122.977 427.588 122.585C427.979 122.194 428.45 121.998 429 121.998H438C438.55 121.998 439.021 122.194 439.413 122.585C439.804 122.977 440 123.448 440 123.998V135.998C440 136.548 439.804 137.019 439.413 137.41C439.021 137.802 438.55 137.998 438 137.998H429ZM429 135.998H438V123.998H429V135.998ZM425 141.998C424.45 141.998 423.979 141.802 423.588 141.41C423.196 141.019 423 140.548 423 139.998V125.998H425V139.998H436V141.998H425Z" fill="#252323"/>
</g>
<g id="DBI_icon_delete">
<path id="Vector_29" d="M487 141.003C486.45 141.003 485.98 140.807 485.588 140.415C485.196 140.023 485 139.553 485 139.003V126.003H484V124.003H489V123.003H495V124.003H500V126.003H499V139.003C499 139.553 498.805 140.023 498.413 140.415C498.021 140.807 497.55 141.003 497 141.003H487ZM497 126.003H487V139.003H497V126.003ZM489 137.003H491V128.003H489V137.003ZM493 137.003H495V128.003H493V137.003Z" fill="#252323"/>
</g>
<g id="DBI_icon_close">
<path id="Vector_30" d="M546.401 138.999L545.001 137.599L550.601 131.999L545.001 126.399L546.401 124.999L552.001 130.599L557.601 124.999L559.001 126.399L553.401 131.999L559.001 137.599L557.601 138.999L552.001 133.399L546.401 138.999Z" fill="#252323"/>
</g>
<g id="DBI_icon_drag">
<path id="Vector_31" d="M12 202L7.75 197.75L9.175 196.325L11 198.15V193H5.875L7.7 194.8L6.25 196.25L2 192L6.225 187.775L7.65 189.2L5.85 191H11V185.85L9.175 187.675L7.75 186.25L12 182L16.25 186.25L14.825 187.675L13 185.85V191H18.125L16.3 189.2L17.75 187.75L22 192L17.75 196.25L16.325 194.825L18.15 193H13V198.125L14.8 196.3L16.25 197.75L12 202Z" fill="#252323"/>
</g>
<g id="DBI_icon_schema">
<path id="Vector_32" d="M64 203V197H66.5V195H64V189H66.5V187H64V181H71V187H68.5V189H71V191H74V189H81V195H74V193H71V195H68.5V197H71V203H64ZM66 201H69V199H66V201ZM66 193H69V191H66V193ZM76 193H79V191H76V193ZM66 185H69V183H66V185Z" fill="#252323"/>
</g>
<g id="DBI_icon_save">
<path id="Vector_33" d="M141 187V199C141 199.55 140.804 200.021 140.413 200.413C140.021 200.804 139.55 201 139 201H125C124.45 201 123.979 200.804 123.588 200.413C123.196 200.021 123 199.55 123 199V185C123 184.45 123.196 183.979 123.588 183.588C123.979 183.196 124.45 183 125 183H137L141 187ZM139 187.85L136.15 185H125V199H139V187.85ZM132 198C132.833 198 133.542 197.708 134.125 197.125C134.708 196.542 135 195.833 135 195C135 194.167 134.708 193.458 134.125 192.875C133.542 192.292 132.833 192 132 192C131.167 192 130.458 192.292 129.875 192.875C129.292 193.458 129 194.167 129 195C129 195.833 129.292 196.542 129.875 197.125C130.458 197.708 131.167 198 132 198ZM126 190H135V186H126V190ZM125 187.85V199V185V187.85Z" fill="#252323"/>
</g>
<g id="DBI_icon_id">
<path id="Vector_34" d="M192 193C191.033 193 190.208 192.658 189.525 191.975C188.842 191.292 188.5 190.467 188.5 189.5C188.5 188.533 188.842 187.708 189.525 187.025C190.208 186.342 191.033 186 192 186C192.967 186 193.792 186.342 194.475 187.025C195.158 187.708 195.5 188.533 195.5 189.5C195.5 190.467 195.158 191.292 194.475 191.975C193.792 192.658 192.967 193 192 193ZM192 191C192.417 191 192.771 190.854 193.062 190.562C193.354 190.271 193.5 189.917 193.5 189.5C193.5 189.083 193.354 188.729 193.062 188.438C192.771 188.146 192.417 188 192 188C191.583 188 191.229 188.146 190.938 188.438C190.646 188.729 190.5 189.083 190.5 189.5C190.5 189.917 190.646 190.271 190.938 190.562C191.229 190.854 191.583 191 192 191ZM192 202.5L183 197V187L192 181.5L201 187V197L192 202.5ZM192 200.175L195.675 197.9C195.108 197.6 194.512 197.375 193.887 197.225C193.262 197.075 192.633 197 192 197C191.367 197 190.738 197.075 190.113 197.225C189.488 197.375 188.892 197.6 188.325 197.9L192 200.175ZM186.4 196.725C187.233 196.158 188.125 195.729 189.075 195.438C190.025 195.146 191 195 192 195C193 195 193.975 195.146 194.925 195.438C195.875 195.729 196.767 196.158 197.6 196.725L199 195.9V188.125L192 183.85L185 188.125V195.9L186.4 196.725Z" fill="#252323"/>
</g>
<g id="DBI_icon_img">
<path id="Vector_35" d="M245 201C244.45 201 243.979 200.804 243.588 200.413C243.196 200.021 243 199.55 243 199V185C243 184.45 243.196 183.979 243.588 183.588C243.979 183.196 244.45 183 245 183H259C259.55 183 260.021 183.196 260.413 183.588C260.804 183.979 261 184.45 261 185V199C261 199.55 260.804 200.021 260.413 200.413C260.021 200.804 259.55 201 259 201H245ZM245 199H259V185H245V199ZM246 197H258L254.25 192L251.25 196L249 193L246 197Z" fill="#252323"/>
</g>
<g id="DBI_icon_list">
<path id="Vector_36" d="M307 189V187H321V189H307ZM307 193V191H321V193H307ZM307 197V195H321V197H307ZM304 189C303.717 189 303.479 188.904 303.287 188.712C303.096 188.521 303 188.283 303 188C303 187.717 303.096 187.479 303.287 187.287C303.479 187.096 303.717 187 304 187C304.283 187 304.521 187.096 304.712 187.287C304.904 187.479 305 187.717 305 188C305 188.283 304.904 188.521 304.712 188.712C304.521 188.904 304.283 189 304 189ZM304 193C303.717 193 303.479 192.904 303.287 192.713C303.096 192.521 303 192.283 303 192C303 191.717 303.096 191.479 303.287 191.287C303.479 191.096 303.717 191 304 191C304.283 191 304.521 191.096 304.712 191.287C304.904 191.479 305 191.717 305 192C305 192.283 304.904 192.521 304.712 192.713C304.521 192.904 304.283 193 304 193ZM304 197C303.717 197 303.479 196.904 303.287 196.713C303.096 196.521 303 196.283 303 196C303 195.717 303.096 195.479 303.287 195.288C303.479 195.096 303.717 195 304 195C304.283 195 304.521 195.096 304.712 195.288C304.904 195.479 305 195.717 305 196C305 196.283 304.904 196.521 304.712 196.713C304.521 196.904 304.283 197 304 197Z" fill="#252323"/>
</g>
<g id="DBI_icon_mail">
<path id="Vector_37" d="M364 200C363.45 200 362.979 199.804 362.588 199.413C362.196 199.021 362 198.55 362 198V186C362 185.45 362.196 184.979 362.588 184.588C362.979 184.196 363.45 184 364 184H380C380.55 184 381.021 184.196 381.413 184.588C381.804 184.979 382 185.45 382 186V198C382 198.55 381.804 199.021 381.413 199.413C381.021 199.804 380.55 200 380 200H364ZM372 193L364 188V198H380V188L372 193ZM372 191L380 186H364L372 191ZM364 188V186V198V188Z" fill="#252323"/>
</g>
<g id="DBI_icon_checklist">
<path id="Vector_38" d="M425.55 199L422 195.45L423.4 194.05L425.525 196.175L429.775 191.925L431.175 193.35L425.55 199ZM425.55 191L422 187.45L423.4 186.05L425.525 188.175L429.775 183.925L431.175 185.35L425.55 191ZM433 197V195H442V197H433ZM433 189V187H442V189H433Z" fill="#252323"/>
</g>
<g id="DBI_icon_photo">
<path id="Vector_39" d="M492 197.5C493.25 197.5 494.312 197.062 495.188 196.188C496.062 195.312 496.5 194.25 496.5 193C496.5 191.75 496.062 190.688 495.188 189.812C494.312 188.938 493.25 188.5 492 188.5C490.75 188.5 489.688 188.938 488.812 189.812C487.938 190.688 487.5 191.75 487.5 193C487.5 194.25 487.938 195.312 488.812 196.188C489.688 197.062 490.75 197.5 492 197.5ZM492 195.5C491.3 195.5 490.708 195.258 490.225 194.775C489.742 194.292 489.5 193.7 489.5 193C489.5 192.3 489.742 191.708 490.225 191.225C490.708 190.742 491.3 190.5 492 190.5C492.7 190.5 493.292 190.742 493.775 191.225C494.258 191.708 494.5 192.3 494.5 193C494.5 193.7 494.258 194.292 493.775 194.775C493.292 195.258 492.7 195.5 492 195.5ZM484 201C483.45 201 482.979 200.804 482.588 200.413C482.196 200.021 482 199.55 482 199V187C482 186.45 482.196 185.979 482.588 185.588C482.979 185.196 483.45 185 484 185H487.15L489 183H495L496.85 185H500C500.55 185 501.021 185.196 501.413 185.588C501.804 185.979 502 186.45 502 187V199C502 199.55 501.804 200.021 501.413 200.413C501.021 200.804 500.55 201 500 201H484ZM484 199H500V187H495.95L494.125 185H489.875L488.05 187H484V199Z" fill="#252323"/>
</g>
<g id="DBI_icon_radio_button_unchecked">
<path id="Vector_40" d="M552 202C550.617 202 549.317 201.738 548.1 201.212C546.883 200.688 545.825 199.975 544.925 199.075C544.025 198.175 543.312 197.117 542.788 195.9C542.263 194.683 542 193.383 542 192C542 190.617 542.263 189.317 542.788 188.1C543.312 186.883 544.025 185.825 544.925 184.925C545.825 184.025 546.883 183.312 548.1 182.788C549.317 182.263 550.617 182 552 182C553.383 182 554.683 182.263 555.9 182.788C557.117 183.312 558.175 184.025 559.075 184.925C559.975 185.825 560.688 186.883 561.212 188.1C561.738 189.317 562 190.617 562 192C562 193.383 561.738 194.683 561.212 195.9C560.688 197.117 559.975 198.175 559.075 199.075C558.175 199.975 557.117 200.688 555.9 201.212C554.683 201.738 553.383 202 552 202ZM552 200C554.233 200 556.125 199.225 557.675 197.675C559.225 196.125 560 194.233 560 192C560 189.767 559.225 187.875 557.675 186.325C556.125 184.775 554.233 184 552 184C549.767 184 547.875 184.775 546.325 186.325C544.775 187.875 544 189.767 544 192C544 194.233 544.775 196.125 546.325 197.675C547.875 199.225 549.767 200 552 200Z" fill="#252323"/>
</g>
<g id="DBI_icon_text_fields">
<path id="Vector_41" d="M7 260V247H2V244H15V247H10V260H7ZM16 260V252H13V249H22V252H19V260H16Z" fill="#252323"/>
</g>
<g id="DBI_icon_title">
<path id="Vector_42" d="M70.5 260V247H65V244H79V247H73.5V260H70.5Z" fill="#252323"/>
</g>
<g id="DBI_icon_text_line">
<path id="Vector_43" d="M124 255V253H134V255H124ZM124 251V249H140V251H124Z" fill="#252323"/>
</g>
<g id="DBI_icon_sihnature">
<path id="Vector_44" d="M194.075 251.725C195.292 250.825 196.242 249.838 196.925 248.763C197.608 247.688 197.95 246.617 197.95 245.55C197.95 245.017 197.863 244.625 197.688 244.375C197.512 244.125 197.275 244 196.975 244C196.192 244 195.5 244.663 194.9 245.987C194.3 247.312 194 248.808 194 250.475C194 250.708 194.004 250.929 194.012 251.137C194.021 251.346 194.042 251.542 194.075 251.725ZM183 261V259H185V261H183ZM187 261V259H189V261H187ZM191 261V259H193V261H191ZM195 261V259H197V261H195ZM199 261V259H201V261H199ZM183.4 257L182 255.6L183.6 254L182 252.4L183.4 251L185 252.6L186.6 251L188 252.4L186.4 254L188 255.6L186.6 257L185 255.4L183.4 257ZM195.45 256C194.95 256 194.492 255.904 194.075 255.713C193.658 255.521 193.3 255.208 193 254.775C192.583 255.008 192.154 255.217 191.713 255.4C191.271 255.583 190.817 255.767 190.35 255.95L189.65 254.075C190.117 253.908 190.562 253.729 190.988 253.538C191.413 253.346 191.825 253.142 192.225 252.925C192.142 252.558 192.079 252.158 192.038 251.725C191.996 251.292 191.975 250.825 191.975 250.325C191.975 247.925 192.45 245.938 193.4 244.362C194.35 242.788 195.542 242 196.975 242C197.842 242 198.55 242.321 199.1 242.963C199.65 243.604 199.925 244.5 199.925 245.65C199.925 247.083 199.471 248.5 198.562 249.9C197.654 251.3 196.392 252.558 194.775 253.675C194.892 253.792 195.012 253.879 195.137 253.938C195.262 253.996 195.392 254.025 195.525 254.025C195.958 254.025 196.463 253.75 197.038 253.2C197.613 252.65 198.133 251.925 198.6 251.025L200.425 251.875C200.308 252.158 200.217 252.5 200.15 252.9C200.083 253.3 200.092 253.65 200.175 253.95C200.342 253.867 200.538 253.725 200.763 253.525C200.988 253.325 201.217 253.075 201.45 252.775L203.025 254C202.592 254.6 202.092 255.083 201.525 255.45C200.958 255.817 200.433 256 199.95 256C199.6 256 199.288 255.896 199.013 255.688C198.738 255.479 198.508 255.158 198.325 254.725C197.858 255.142 197.383 255.458 196.9 255.675C196.417 255.892 195.933 256 195.45 256Z" fill="#252323"/>
</g>
<g id="DBI_icon_subject">
<path id="Vector_45" d="M244 259V257H254V259H244ZM244 255V253H260V255H244ZM244 251V249H260V251H244ZM244 247V245H260V247H244Z" fill="#252323"/>
</g>
<g id="DBI_icon_comment">
<path id="Vector_46" d="M306 254H318V252H306V254ZM306 251H318V249H306V251ZM306 248H318V246H306V248ZM322 262L318 258H304C303.45 258 302.979 257.804 302.588 257.413C302.196 257.021 302 256.55 302 256V244C302 243.45 302.196 242.979 302.588 242.588C302.979 242.196 303.45 242 304 242H320C320.55 242 321.021 242.196 321.413 242.588C321.804 242.979 322 243.45 322 244V262ZM304 256H318.85L320 257.125V244H304V256Z" fill="#252323"/>
</g>
<g id="DBI_icon_done_all">
<path id="Vector_47" d="M366.7 258L361.05 252.35L362.475 250.95L366.725 255.2L368.125 256.6L366.7 258ZM372.35 258L366.7 252.35L368.1 250.925L372.35 255.175L381.55 245.975L382.95 247.4L372.35 258ZM372.35 252.35L370.925 250.95L375.875 246L377.3 247.4L372.35 252.35Z" fill="#252323"/>
</g>
<g id="DBI_icon_checkboks">
<path id="Vector_48" d="M430.6 256.2L437.65 249.15L436.25 247.75L430.6 253.4L427.75 250.55L426.35 251.95L430.6 256.2ZM425 261C424.45 261 423.979 260.804 423.588 260.413C423.196 260.021 423 259.55 423 259V245C423 244.45 423.196 243.979 423.588 243.588C423.979 243.196 424.45 243 425 243H439C439.55 243 440.021 243.196 440.413 243.588C440.804 243.979 441 244.45 441 245V259C441 259.55 440.804 260.021 440.413 260.413C440.021 260.804 439.55 261 439 261H425ZM425 259H439V245H425V259Z" fill="#252323"/>
</g>
<g id="DBI_icon_history">
<path id="Vector_49" d="M492 261C489.7 261 487.696 260.238 485.987 258.713C484.279 257.188 483.3 255.283 483.05 253H485.1C485.333 254.733 486.104 256.167 487.412 257.3C488.721 258.433 490.25 259 492 259C493.95 259 495.604 258.321 496.963 256.963C498.321 255.604 499 253.95 499 252C499 250.05 498.321 248.396 496.963 247.037C495.604 245.679 493.95 245 492 245C490.85 245 489.775 245.267 488.775 245.8C487.775 246.333 486.933 247.067 486.25 248H489V250H483V244H485V246.35C485.85 245.283 486.888 244.458 488.113 243.875C489.338 243.292 490.633 243 492 243C493.25 243 494.421 243.237 495.512 243.713C496.604 244.188 497.554 244.829 498.363 245.638C499.171 246.446 499.812 247.396 500.288 248.488C500.763 249.579 501 250.75 501 252C501 253.25 500.763 254.421 500.288 255.512C499.812 256.604 499.171 257.554 498.363 258.363C497.554 259.171 496.604 259.812 495.512 260.288C494.421 260.763 493.25 261 492 261ZM494.8 256.2L491 252.4V247H493V251.6L496.2 254.8L494.8 256.2Z" fill="#252323"/>
</g>
</g>
<defs>
<clipPath id="clip0_1118_5616">
<rect width="24" height="24" fill="white" transform="translate(360)"/>
</clipPath>
<clipPath id="clip1_1118_5616">
<rect width="24" height="24" fill="white" transform="translate(300 60)"/>
</clipPath>
</defs>
</svg>
