<svg width="105" height="40" viewBox="0 0 105 40" fill="none" xmlns="http://www.w3.org/2000/svg">
<g clip-path="url(#clip0_504_19144)">
<path d="M18.4539 36.9765C16.5347 38.8956 13.7719 39.8235 10.6295 39.8235H0V9.53993H10.6295C13.7719 9.53993 16.5347 10.4678 18.4539 12.3869C21.7229 15.6557 21.512 20.0844 21.512 24.4498C21.512 28.8151 21.7229 33.6656 18.4539 36.9554V36.9765ZM15.3115 15.719C14.025 14.306 12.3378 13.6733 10.1655 13.6733H4.59767V35.6901H10.1655C12.3378 35.6901 14.025 35.0575 15.3115 33.6445C16.8933 31.8941 16.9354 28.6253 16.9354 24.4708C16.9354 20.3163 16.8933 17.4483 15.3115 15.719Z" fill="black"/>
<path d="M39.3127 39.8235H27.0593V9.53993H38.8276C44.4376 9.53993 47.9597 12.7243 47.9597 17.8279C47.9597 22.9314 45.9139 23.4375 43.8682 24.2389C46.2092 25.1668 48.4236 27.4233 48.4236 31.2615C48.4236 36.8289 44.6485 39.8024 39.2916 39.8024L39.3127 39.8235ZM38.4691 13.6733H31.678V22.3409H38.4691C41.4006 22.3409 43.4042 20.8014 43.4042 17.9966C43.4042 15.1917 41.4006 13.6523 38.4691 13.6523V13.6733ZM38.8909 26.4743H31.6569V35.6901H38.8909C42.0755 35.6901 43.8682 33.7289 43.8682 31.0506C43.8682 28.3723 42.0755 26.4532 38.8909 26.4532V26.4743Z" fill="black"/>
<path d="M54.8346 39.8235V9.53993H59.4322V39.8024H54.8346V39.8235Z" fill="black"/>
<path d="M90.0537 14.2048C84.9691 14.2048 80.7958 18.4604 80.7958 23.7432C80.7958 29.026 84.9211 33.2816 90.0537 33.2816C95.1863 33.2816 99.3116 29.026 99.3116 23.7432C99.3116 18.4604 95.1863 14.2048 90.0537 14.2048Z" fill="white"/>
<path d="M90.2129 28.541C86.3534 28.773 82.9578 26.7273 81.0386 23.4586C82.5993 20.6748 85.5098 18.9456 88.5467 18.5238C92.7015 18.0809 96.3712 20.0422 98.4381 23.5007C96.9196 26.7906 93.5873 28.3512 90.1918 28.541M104.976 13.125V0.598249C104.976 0.408449 104.871 0.260827 104.702 0.197561C104.66 0.176472 104.617 0.176472 104.554 0.176472C104.322 0.176472 104.132 0.366271 104.132 0.598249C104.132 0.830226 104.132 0.935671 104.111 1.10438C103.584 5.40651 97.3625 8.75964 96.3712 12.9352C96.3501 13.0618 96.3079 13.1883 96.2869 13.3148H96.2447V0.598249C96.2447 0.408449 96.1392 0.260827 95.9705 0.197561C95.9494 0.176472 95.8861 0.176472 95.8229 0.176472C95.5909 0.176472 95.4011 0.366271 95.4011 0.598249C95.4011 0.830226 95.4011 0.935671 95.38 1.10438C94.8527 5.40651 88.6311 8.75964 87.6399 12.9352C87.6188 13.0618 87.5977 13.1672 87.5766 13.2937H87.5555V2.89693C87.5555 2.70713 87.4501 2.55951 87.2813 2.49625C87.2392 2.47516 87.1759 2.45407 87.1126 2.45407C86.8806 2.45407 86.6908 2.64387 86.6908 2.87585C86.6908 3.10782 86.6908 3.21327 86.6697 3.38198C86.1425 7.68411 79.9208 11.0372 78.9296 15.2128C78.8452 15.5081 78.8242 15.8244 78.8242 16.1407V17.7013H70.0928V17.9755C70.0928 17.9755 78.8031 21.413 78.8031 24.1756C78.8031 26.9382 70.0928 30.671 70.0928 30.671V30.9873H80.0474L78.8242 39.8235H101.791L99.5558 30.9451C105.292 27.9716 104.997 21.5184 104.997 13.125" fill="#FF0000"/>
<path d="M89.7699 19.4298C87.5343 19.4298 85.6995 21.2646 85.6995 23.5421C85.6995 25.8197 87.5132 27.6545 89.7699 27.6545C92.0266 27.6545 93.8403 25.8197 93.8403 23.5421C93.8403 21.2646 92.0266 19.4298 89.7699 19.4298Z" fill="black"/>
</g>
<defs>
<clipPath id="clip0_504_19144">
<rect width="105" height="39.6471" fill="white" transform="translate(0 0.176472)"/>
</clipPath>
</defs>
</svg>
