<svg width="46" height="52" viewBox="0 0 46 52" fill="none" xmlns="http://www.w3.org/2000/svg">
<path d="M25.8073 18.1373C19.2335 18.1373 13.838 23.6393 13.838 30.4693C13.838 37.2994 19.1715 42.8013 25.8073 42.8013C32.4431 42.8013 37.7766 37.2994 37.7766 30.4693C37.7766 23.6393 32.4431 18.1373 25.8073 18.1373Z" fill="white"/>
<path d="M26.0128 36.6719C21.0229 36.9718 16.6329 34.3271 14.1516 30.101C16.1694 26.5019 19.9323 24.2662 23.8587 23.7209C29.2303 23.1483 33.9748 25.684 36.647 30.1555C34.6838 34.4089 30.3756 36.4265 25.9856 36.6719M45.0998 16.7409V0.545307C45.0998 0.299919 44.9635 0.109061 44.7453 0.0272654C44.6908 0 44.6363 0 44.5545 0C44.2545 0 44.0091 0.245388 44.0091 0.545307C44.0091 0.845226 44.0091 0.981553 43.9818 1.19968C43.3002 6.76181 35.2564 11.097 33.9748 16.4955C33.9475 16.6591 33.893 16.8227 33.8657 16.9863H33.8112V0.545307C33.8112 0.299919 33.6749 0.109061 33.4567 0.0272654C33.4295 0 33.3477 0 33.2659 0C32.9659 0 32.7205 0.245388 32.7205 0.545307C32.7205 0.845226 32.7205 0.981553 32.6933 1.19968C32.0116 6.76181 23.9678 11.097 22.6862 16.4955C22.659 16.6591 22.6317 16.7955 22.6044 16.9591H22.5772V3.51723C22.5772 3.27184 22.4408 3.08099 22.2227 2.99919C22.1682 2.97192 22.0864 2.94466 22.0046 2.94466C21.7046 2.94466 21.4592 3.19005 21.4592 3.48997C21.4592 3.78989 21.4592 3.92621 21.4319 4.14434C20.7503 9.70647 12.7065 14.0417 11.4249 19.4402C11.3159 19.8219 11.2886 20.2309 11.2886 20.6399V22.6575H0V23.012C0 23.012 11.2613 27.4562 11.2613 31.028C11.2613 34.5997 0 39.4257 0 39.4257V39.8347H12.8701L11.2886 51.2589H40.9825L38.0922 39.7802C45.5088 35.9357 45.1271 27.5925 45.1271 16.7409" fill="#FF0000"/>
<path d="M25.4402 24.8928C22.5499 24.8928 20.1777 27.2649 20.1777 30.2096C20.1777 33.1542 22.5227 35.5263 25.4402 35.5263C28.3578 35.5263 30.7028 33.1542 30.7028 30.2096C30.7028 27.2649 28.3578 24.8928 25.4402 24.8928Z" fill="black"/>
</svg>
